<svg width="220" height="50" viewBox="0 0 200 50" fill="none" xmlns="http://www.w3.org/2000/svg">
    <rect width="50" height="50" rx="10" fill="#ADD8E6"/>
    <path d="M22.9997 3C35.7026 3 45.9997 13.2971 45.9997 26V42.1C45.9997 43.93 45.2728 45.685 43.9788 46.979C42.6848 48.273 40.9297 49 39.0997 49H24.1497V38.9099C24.1497 36.6076 24.29 34.2225 25.4975 32.2629C26.362 30.8586 27.5185 29.6566 28.8884 28.7385C30.2583 27.8204 31.8096 27.2077 33.4371 26.9418L33.8776 26.8705C34.0592 26.8085 34.2168 26.6912 34.3284 26.5351C34.44 26.379 34.5 26.1919 34.5 26C34.5 25.8081 34.44 25.621 34.3284 25.4649C34.2168 25.3088 34.0592 25.1915 33.8776 25.1294L33.4371 25.0581C31.0591 24.6697 28.8632 23.5441 27.1594 21.8403C25.4556 20.1365 24.3301 17.9406 23.9416 15.5626L23.8703 15.1222C23.8082 14.9406 23.6909 14.7829 23.5348 14.6713C23.3787 14.5597 23.1916 14.4997 22.9997 14.4997C22.8078 14.4997 22.6208 14.5597 22.4647 14.6713C22.3086 14.7829 22.1913 14.9406 22.1292 15.1222L22.0579 15.5626C21.7922 17.1902 21.1795 18.7415 20.2614 20.1114C19.3433 21.4814 18.1412 22.6378 16.7368 23.5022C14.7772 24.7097 12.3921 24.85 10.0898 24.85H0.0273438C0.628794 12.6818 10.6832 3 22.9997 3Z" fill="#5F6FFF"/>
    <text x="60" y="35" font-family="Arial, sans-serif" font-size="34" fill="#ADD8E6" font-weight="bold">goDoctor</text>
</svg>